<svg width="557" height="387" viewBox="0 0 557 387" fill="none" xmlns="http://www.w3.org/2000/svg">
<path d="M236.29 114.192C263.153 179.079 363.325 307.835 549.107 303.762C536.19 276.204 417.362 117.585 365.219 82.9342C343.773 64.7094 292.409 31.64 258.524 45.1607C224.64 58.6814 229.583 96.8154 236.29 114.192Z" fill="#13D65A" stroke="#13D65A" stroke-width="5"/>
<path d="M318.752 113.951C292.221 178.438 192.859 306.223 7.6508 301.46C20.4212 274.078 138.268 116.638 190.113 82.3444C211.422 64.2847 262.496 31.5625 296.325 45.1505C330.154 58.7385 325.371 96.679 318.752 113.951Z" stroke="#13D65A" stroke-width="5"/>
<path d="M88.3032 235.004L113.903 165.004H128.303L153.903 235.004H140.303L134.703 218.804H107.403L101.703 235.004H88.3032ZM110.903 208.804H131.203L121.003 179.704L110.903 208.804ZM162.62 235.004V185.404H174.02L175.22 194.704C177.02 191.504 179.454 188.97 182.52 187.104C185.654 185.17 189.32 184.204 193.52 184.204V197.704H189.92C187.12 197.704 184.62 198.137 182.42 199.004C180.22 199.87 178.487 201.37 177.22 203.504C176.02 205.637 175.42 208.604 175.42 212.404V235.004H162.62ZM202.269 235.004V163.004H215.069V205.504L232.669 185.404H247.869L227.569 208.004L251.169 235.004H235.169L215.069 210.104V235.004H202.269ZM294.403 257.004V227.904C292.803 230.104 290.67 232.037 288.003 233.704C285.403 235.37 282.003 236.204 277.803 236.204C273.137 236.204 268.97 235.07 265.303 232.804C261.637 230.537 258.737 227.437 256.603 223.504C254.47 219.57 253.403 215.104 253.403 210.104C253.403 205.104 254.47 200.67 256.603 196.804C258.737 192.87 261.637 189.804 265.303 187.604C268.97 185.337 273.137 184.204 277.803 184.204C281.537 184.204 284.803 184.904 287.603 186.304C290.403 187.704 292.67 189.67 294.403 192.204L295.803 185.404H307.203V257.004H294.403ZM280.503 225.004C284.637 225.004 288.003 223.637 290.603 220.904C293.27 218.104 294.603 214.537 294.603 210.204C294.603 205.87 293.27 202.337 290.603 199.604C288.003 196.804 284.637 195.404 280.503 195.404C276.437 195.404 273.07 196.77 270.403 199.504C267.737 202.237 266.403 205.77 266.403 210.104C266.403 214.437 267.737 218.004 270.403 220.804C273.07 223.604 276.437 225.004 280.503 225.004ZM338.838 236.204C332.638 236.204 327.838 234.27 324.438 230.404C321.104 226.537 319.438 220.87 319.438 213.404V185.404H332.138V212.204C332.138 216.47 333.004 219.737 334.738 222.004C336.471 224.27 339.204 225.404 342.938 225.404C346.471 225.404 349.371 224.137 351.638 221.604C353.971 219.07 355.138 215.537 355.138 211.004V185.404H367.938V235.004H356.638L355.638 226.604C354.104 229.537 351.871 231.87 348.938 233.604C346.071 235.337 342.704 236.204 338.838 236.204ZM387.977 177.704C385.644 177.704 383.711 177.004 382.177 175.604C380.711 174.204 379.977 172.437 379.977 170.304C379.977 168.17 380.711 166.437 382.177 165.104C383.711 163.704 385.644 163.004 387.977 163.004C390.311 163.004 392.211 163.704 393.677 165.104C395.211 166.437 395.977 168.17 395.977 170.304C395.977 172.437 395.211 174.204 393.677 175.604C392.211 177.004 390.311 177.704 387.977 177.704ZM381.577 235.004V185.404H394.377V235.004H381.577ZM407.738 235.004V185.404H419.138L420.338 194.704C422.138 191.504 424.571 188.97 427.638 187.104C430.771 185.17 434.438 184.204 438.638 184.204V197.704H435.038C432.238 197.704 429.738 198.137 427.538 199.004C425.338 199.87 423.604 201.37 422.338 203.504C421.138 205.637 420.538 208.604 420.538 212.404V235.004H407.738ZM470.607 236.204C465.607 236.204 461.174 235.137 457.307 233.004C453.44 230.87 450.407 227.87 448.207 224.004C446.007 220.137 444.907 215.67 444.907 210.604C444.907 205.47 445.974 200.904 448.107 196.904C450.307 192.904 453.307 189.804 457.107 187.604C460.974 185.337 465.507 184.204 470.707 184.204C475.574 184.204 479.874 185.27 483.607 187.404C487.34 189.537 490.24 192.47 492.307 196.204C494.44 199.87 495.507 203.97 495.507 208.504C495.507 209.237 495.474 210.004 495.407 210.804C495.407 211.604 495.374 212.437 495.307 213.304H457.607C457.874 217.17 459.207 220.204 461.607 222.404C464.074 224.604 467.04 225.704 470.507 225.704C473.107 225.704 475.274 225.137 477.007 224.004C478.807 222.804 480.14 221.27 481.007 219.404H494.007C493.074 222.537 491.507 225.404 489.307 228.004C487.174 230.537 484.507 232.537 481.307 234.004C478.174 235.47 474.607 236.204 470.607 236.204ZM470.707 194.604C467.574 194.604 464.807 195.504 462.407 197.304C460.007 199.037 458.474 201.704 457.807 205.304H482.507C482.307 202.037 481.107 199.437 478.907 197.504C476.707 195.57 473.974 194.604 470.707 194.604Z" fill="black"/>
</svg>
