<svg width="194" height="212" viewBox="0 0 194 212" fill="none" xmlns="http://www.w3.org/2000/svg">
<g clip-path="url(#clip0_21268_1742)">
<g clip-path="url(#clip1_21268_1742)">
<g clip-path="url(#clip2_21268_1742)">
<path d="M74.7668 211.403C116.058 211.403 149.532 177.641 149.532 135.994C149.532 94.3466 116.058 60.5847 74.7668 60.5847C33.4753 60.5847 0.00195312 94.3466 0.00195312 135.994C0.00195312 177.641 33.4753 211.403 74.7668 211.403Z" fill="#B6FFD1"/>
<path d="M152.064 137.447C70.8448 153.465 50.7466 158.862 50.85 159.558C118.987 149.273 234.869 132.124 153.303 145.802C71.7371 159.481 51.5287 164.133 51.6199 164.75C113.725 155.397 226.88 138.651 182.664 146.496C138.448 154.341 105.655 160.032 94.7853 161.896" stroke="#101010" stroke-width="0.322262"/>
<path d="M61.6916 140.12C48.7022 59.654 44.1231 25.8464 43.457 19.0009L158.809 125.241L140.574 4.12183" stroke="#101010" stroke-width="0.644524"/>
<path d="M24.75 65.08L172.03 42.5159" stroke="#101010" stroke-width="0.644524"/>
<path d="M31.1641 107.689L178.444 85.125" stroke="#101010" stroke-width="0.644524"/>
</g>
</g>
</g>
<defs>
<clipPath id="clip0_21268_1742">
<rect width="194" height="212" fill="white"/>
</clipPath>
<clipPath id="clip1_21268_1742">
<rect width="193.037" height="211.404" fill="white"/>
</clipPath>
<clipPath id="clip2_21268_1742">
<rect width="193.035" height="211.404" fill="white" transform="translate(0.00195312)"/>
</clipPath>
</defs>
</svg>
