<svg width="662" height="717" viewBox="0 0 662 717" fill="none" xmlns="http://www.w3.org/2000/svg">
<path d="M446.021 523.98C423.704 474.726 341.733 377.744 192.389 383.842C203.079 404.736 300.382 524.286 342.694 549.982C360.14 563.592 401.807 588.09 428.905 577.194C456.003 566.298 451.606 537.178 446.021 523.98Z" fill="#13D65A"/>
<path d="M194.573 384.248C276.448 419.698 438.645 505.47 432.432 564.96" stroke="black"/>
<path d="M255.743 417.185C276.866 453.741 283.497 468.895 284.173 471.902" stroke="black"/>
<path d="M314.584 444.312C335.707 480.868 342.339 496.022 343.014 499.029" stroke="black"/>
<path d="M380.032 490.091C401.156 526.647 407.787 541.801 408.463 544.809" stroke="black"/>
<path d="M430.91 507.441C396.965 494.227 383.629 487.643 381.204 486.003" stroke="black"/>
<path d="M382.9 453.982C335.799 448.895 317.83 445.091 314.733 443.824" stroke="black"/>
<path d="M326.096 420.225C278.995 415.138 261.026 411.334 257.929 410.067" stroke="black"/>
<path d="M422.106 158.678C365.62 171.242 244.896 231.251 213.887 370.779C238.155 364.315 386.037 293.813 423.168 258.813C441.596 244.879 477.327 210.279 472.834 183.345C468.342 156.411 437.144 155.678 422.106 158.678Z" fill="#13D65A"/>
<path d="M214.853 368.821C271.951 298.736 401.13 162.463 461.07 178.053" stroke="black"/>
<path d="M264.18 317.526C307.243 303.972 324.564 300.324 327.841 300.195" stroke="black"/>
<path d="M306.92 267.43C349.984 253.877 367.304 250.229 370.582 250.099" stroke="black"/>
<path d="M370.592 214.287C413.655 200.733 430.976 197.086 434.253 196.956" stroke="black"/>
<path d="M401.236 169.963C379.096 199.264 368.96 210.547 366.659 212.525" stroke="black"/>
<path d="M333.984 205.662C316.959 248.509 308.537 264.547 306.454 267.211" stroke="black"/>
<path d="M284.899 252.773C267.874 295.62 259.452 311.659 257.369 314.322" stroke="black"/>
<path d="M506.665 350.322C466.301 326.664 360.223 297.162 258.816 368.417C276.794 377.904 404.939 415.952 447.451 414.518C466.495 415.99 507.953 414.026 521.433 394.402C534.913 374.778 517.204 356.839 506.665 350.322Z" fill="#13D65A"/>
<path d="M260.548 367.715C335.637 355.179 492.202 340.978 517.753 384.452" stroke="black"/>
<path d="M319.89 362.762C353.037 378.273 365.292 385.657 367.276 387.41" stroke="black"/>
<path d="M374.684 354.882C407.831 370.393 420.085 377.777 422.069 379.53" stroke="black"/>
<path d="M443.473 356.789C476.62 372.3 488.875 379.685 490.859 381.438" stroke="black"/>
<path d="M487.783 345.801C457.396 352.011 444.759 353.5 442.238 353.468" stroke="black"/>
<path d="M427.333 330.807C391.828 348.486 377.346 353.956 374.543 354.481" stroke="black"/>
<path d="M370.633 333.238C335.128 350.917 320.646 356.387 317.843 356.912" stroke="black"/>
</svg>
