<svg width="623" height="628" viewBox="0 0 623 628" fill="none" xmlns="http://www.w3.org/2000/svg">
<g clip-path="url(#clip0_21268_1751)">
<path d="M360.657 189.201C343.291 220.087 323.842 300.99 384.967 377.517C391.86 363.769 417.286 266.016 414.455 233.702C414.88 219.209 411.666 187.7 395.404 177.611C379.141 167.521 365.463 181.134 360.657 189.201Z" fill="#B6FFD1"/>
<path d="M384.334 376.205C371.316 319.21 353.738 200.273 387.573 180.49" stroke="#101010" stroke-width="0.655268"/>
<path d="M378.018 331.121C389.138 305.79 394.573 296.411 395.899 294.888" stroke="#101010" stroke-width="0.655268"/>
<path d="M369.533 289.52C380.654 264.189 386.088 254.81 387.415 253.287" stroke="#101010" stroke-width="0.655268"/>
<path d="M368.34 237.199C379.46 211.866 384.895 202.488 386.221 200.965" stroke="#101010" stroke-width="0.655268"/>
<path d="M357.779 203.594C363.96 226.649 365.653 236.247 365.727 238.164" stroke="#101010" stroke-width="0.655268"/>
<path d="M348.153 249.684C363.728 276.537 368.685 287.504 369.217 289.632" stroke="#101010" stroke-width="0.655268"/>
<path d="M352.344 292.778C367.919 319.632 372.877 330.599 373.408 332.726" stroke="#101010" stroke-width="0.655268"/>
<path d="M176.959 343.468C205.496 368.435 284.003 408.941 369.732 371.224C356.908 360.911 262.328 310.127 229.443 304.083C214.938 299.751 182.807 294.291 170.321 307.107C157.834 319.923 169.543 336.687 176.959 343.468Z" fill="#B6FFD1"/>
<path d="M368.322 371.473C309.162 368.484 187.09 353.081 172.086 315.373" stroke="#101010" stroke-width="0.655268"/>
<path d="M322.1 365.304C298.244 347.811 289.601 340.076 288.263 338.395" stroke="#101010" stroke-width="0.655268"/>
<path d="M279.067 362.151C255.211 344.657 246.569 336.922 245.229 335.241" stroke="#101010" stroke-width="0.655268"/>
<path d="M226.306 349.12C202.449 331.627 193.807 323.891 192.468 322.211" stroke="#101010" stroke-width="0.655268"/>
<path d="M191.01 350.117C215.072 350.452 224.962 351.431 226.899 351.88" stroke="#101010" stroke-width="0.655268"/>
<path d="M235.943 371.802C265.178 364.182 276.916 362.413 279.13 362.481" stroke="#101010" stroke-width="0.655268"/>
<path d="M279.861 379.465C309.096 371.846 320.834 370.076 323.048 370.144" stroke="#101010" stroke-width="0.655268"/>
<path d="M245.409 224.496C248.561 254.991 274.105 322.465 351.063 348.406C349.105 335.231 319.519 252.786 302.279 230.885C295.673 220.255 278.561 199.116 262.968 199.604C247.375 200.091 244.765 216.402 245.409 224.496Z" fill="#B6FFD1"/>
<path d="M350.02 347.764C314.284 312.958 246.079 235.759 259.138 205.406" stroke="#101010" stroke-width="0.655268"/>
<path d="M324.396 318.337C319.738 294.813 318.888 285.476 319.044 283.749" stroke="#101010" stroke-width="0.655268"/>
<path d="M298.99 292.446C294.332 268.922 293.482 259.586 293.638 257.859" stroke="#101010" stroke-width="0.655268"/>
<path d="M273.326 255.37C268.668 231.846 267.818 222.509 267.974 220.781" stroke="#101010" stroke-width="0.655268"/>
<path d="M250.341 236.223C265.403 249.867 271.09 255.965 272.05 257.309" stroke="#101010" stroke-width="0.655268"/>
<path d="M265.858 273.969C288.963 285.87 297.468 291.399 298.832 292.676" stroke="#101010" stroke-width="0.655268"/>
<path d="M289.126 302.978C312.231 314.879 320.735 320.408 322.1 321.685" stroke="#101010" stroke-width="0.655268"/>
</g>
<defs>
<clipPath id="clip0_21268_1751">
<rect width="433.792" height="469.827" fill="white" transform="translate(256.797 627.971) rotate(-126.278)"/>
</clipPath>
</defs>
</svg>
