<svg width="354" height="341" viewBox="0 0 354 341" fill="none" xmlns="http://www.w3.org/2000/svg">
<path d="M225.657 64.2011C208.291 95.0868 188.842 175.99 249.967 252.517C256.86 238.769 282.286 141.016 279.455 108.702C279.88 94.2094 276.666 62.7004 260.404 52.6105C244.141 42.5206 230.463 56.1337 225.657 64.2011Z" fill="#B6FFD1"/>
<path d="M249.334 251.205C236.316 194.21 218.738 75.2734 252.573 55.49" stroke="#101010" stroke-width="0.655268"/>
<path d="M243.018 206.121C254.138 180.79 259.573 171.411 260.899 169.888" stroke="#101010" stroke-width="0.655268"/>
<path d="M234.533 164.52C245.654 139.189 251.088 129.81 252.415 128.287" stroke="#101010" stroke-width="0.655268"/>
<path d="M233.34 112.199C244.46 86.8663 249.895 77.488 251.221 75.9646" stroke="#101010" stroke-width="0.655268"/>
<path d="M222.779 78.5944C228.96 101.649 230.653 111.247 230.727 113.164" stroke="#101010" stroke-width="0.655268"/>
<path d="M213.153 124.684C228.728 151.537 233.685 162.504 234.217 164.632" stroke="#101010" stroke-width="0.655268"/>
<path d="M217.344 167.778C232.919 194.632 237.877 205.599 238.408 207.726" stroke="#101010" stroke-width="0.655268"/>
<path d="M41.9586 218.468C70.4963 243.435 149.003 283.941 234.732 246.224C221.908 235.911 127.328 185.127 94.4432 179.083C79.9376 174.751 47.8065 169.291 35.3207 182.107C22.8344 194.923 34.5433 211.687 41.9586 218.468Z" fill="#B6FFD1"/>
<path d="M233.322 246.473C174.162 243.484 52.0902 228.081 37.0857 190.373" stroke="#101010" stroke-width="0.655268"/>
<path d="M187.1 240.304C163.244 222.811 154.601 215.076 153.263 213.395" stroke="#101010" stroke-width="0.655268"/>
<path d="M144.067 237.151C120.211 219.657 111.569 211.922 110.229 210.241" stroke="#101010" stroke-width="0.655268"/>
<path d="M91.3055 224.12C67.4492 206.627 58.807 198.891 57.4677 197.211" stroke="#101010" stroke-width="0.655268"/>
<path d="M56.0098 225.117C80.0722 225.452 89.9624 226.431 91.8994 226.88" stroke="#101010" stroke-width="0.655268"/>
<path d="M100.943 246.802C130.178 239.182 141.916 237.413 144.13 237.481" stroke="#101010" stroke-width="0.655268"/>
<path d="M144.861 254.465C174.096 246.846 185.834 245.076 188.048 245.144" stroke="#101010" stroke-width="0.655268"/>
<path d="M110.409 99.4955C113.561 129.991 139.105 197.465 216.063 223.406C214.105 210.231 184.519 127.786 167.279 105.885C160.673 95.2546 143.561 74.1158 127.968 74.6036C112.375 75.0914 109.765 91.4015 110.409 99.4955Z" fill="#B6FFD1"/>
<path d="M215.02 222.764C179.284 187.958 111.079 110.759 124.138 80.4056" stroke="#101010" stroke-width="0.655268"/>
<path d="M189.396 193.337C184.738 169.813 183.888 160.476 184.044 158.749" stroke="#101010" stroke-width="0.655268"/>
<path d="M163.99 167.446C159.332 143.922 158.482 134.586 158.638 132.859" stroke="#101010" stroke-width="0.655268"/>
<path d="M138.326 130.37C133.668 106.846 132.818 97.5087 132.974 95.781" stroke="#101010" stroke-width="0.655268"/>
<path d="M115.341 111.223C130.403 124.867 136.09 130.965 137.05 132.309" stroke="#101010" stroke-width="0.655268"/>
<path d="M130.858 148.969C153.963 160.87 162.468 166.399 163.832 167.676" stroke="#101010" stroke-width="0.655268"/>
<path d="M154.126 177.978C177.231 189.879 185.735 195.408 187.1 196.685" stroke="#101010" stroke-width="0.655268"/>
</svg>
